<svg width="100" height="100" viewBox="0 0 100 100" fill="none" xmlns="http://www.w3.org/2000/svg">
<rect width="100" height="100" fill="#1E1E1E"/>
<g clip-path="url(#clip0_0_1)">
<rect width="100" height="100" fill="white"/>
<circle cx="100" cy="100" r="100" fill="#66A3FF"/>
<path d="M21.8168 48.5455H24.3395L30.2713 63.0341H30.4759L36.4077 48.5455H38.9304V66H36.9531V52.7386H36.7827L31.3281 66H29.419L23.9645 52.7386H23.794V66H21.8168V48.5455ZM45.282 48.5455V66H43.1683V48.5455H45.282ZM63.3608 48.5455V66H61.3153L51.804 52.2955H51.6335V66H49.5199V48.5455H51.5653L61.1108 62.2841H61.2812V48.5455H63.3608ZM77.1357 52.9091C77.0334 52.0455 76.6186 51.375 75.8913 50.8977C75.1641 50.4205 74.272 50.1818 73.2152 50.1818C72.4425 50.1818 71.7663 50.3068 71.1868 50.5568C70.6129 50.8068 70.1641 51.1506 69.8402 51.5881C69.522 52.0256 69.3629 52.5227 69.3629 53.0795C69.3629 53.5455 69.4737 53.946 69.6953 54.2812C69.9226 54.6108 70.2124 54.8864 70.5646 55.108C70.9169 55.3239 71.2862 55.5028 71.6726 55.6449C72.0589 55.7812 72.4141 55.892 72.7379 55.9773L74.5107 56.4545C74.9652 56.5739 75.4709 56.7386 76.0277 56.9489C76.5902 57.1591 77.1271 57.446 77.6385 57.8097C78.1555 58.1676 78.5817 58.6278 78.9169 59.1903C79.2521 59.7528 79.4197 60.4432 79.4197 61.2614C79.4197 62.2045 79.1726 63.0568 78.6783 63.8182C78.1896 64.5795 77.4737 65.1847 76.5305 65.6335C75.593 66.0824 74.4538 66.3068 73.1129 66.3068C71.8629 66.3068 70.7805 66.1051 69.8658 65.7017C68.9567 65.2983 68.2408 64.7358 67.718 64.0142C67.201 63.2926 66.9084 62.4545 66.8402 61.5H69.022C69.0788 62.1591 69.3004 62.7045 69.6868 63.1364C70.0788 63.5625 70.5732 63.8807 71.1697 64.0909C71.772 64.2955 72.4197 64.3977 73.1129 64.3977C73.9197 64.3977 74.6442 64.267 75.2862 64.0057C75.9283 63.7386 76.4368 63.3693 76.8118 62.8977C77.1868 62.4205 77.3743 61.8636 77.3743 61.2273C77.3743 60.6477 77.2124 60.1761 76.8885 59.8125C76.5646 59.4489 76.1385 59.1534 75.6101 58.9261C75.0817 58.6989 74.5107 58.5 73.897 58.3295L71.7493 57.7159C70.3857 57.3239 69.3061 56.7642 68.5107 56.0369C67.7152 55.3097 67.3175 54.358 67.3175 53.1818C67.3175 52.2045 67.5817 51.3523 68.1101 50.625C68.6442 49.892 69.3601 49.3239 70.2578 48.9205C71.1612 48.5114 72.1697 48.3068 73.2834 48.3068C74.4084 48.3068 75.4084 48.5085 76.2834 48.9119C77.1584 49.3097 77.8516 49.8551 78.3629 50.5483C78.88 51.2415 79.1527 52.0284 79.1811 52.9091H77.1357ZM83.6108 66H81.3949L87.804 48.5455H89.9858L96.3949 66H94.179L88.9631 51.3068H88.8267L83.6108 66ZM84.429 59.1818H93.3608V61.0568H84.429V59.1818ZM55.2621 95V77.5455H61.1598C62.5291 77.5455 63.6484 77.7926 64.5178 78.2869C65.3928 78.7756 66.0405 79.4375 66.4609 80.2727C66.8814 81.108 67.0916 82.0398 67.0916 83.0682C67.0916 84.0966 66.8814 85.0312 66.4609 85.8722C66.0462 86.7131 65.4041 87.3835 64.5348 87.8835C63.6655 88.3778 62.5518 88.625 61.1939 88.625H56.9666V86.75H61.1257C62.0632 86.75 62.8161 86.5881 63.3842 86.2642C63.9524 85.9403 64.3643 85.5028 64.62 84.9517C64.8814 84.3949 65.0121 83.767 65.0121 83.0682C65.0121 82.3693 64.8814 81.7443 64.62 81.1932C64.3643 80.642 63.9496 80.2102 63.3757 79.8977C62.8018 79.5795 62.0405 79.4205 61.0916 79.4205H57.3757V95H55.2621ZM69.4311 95H67.2152L73.6243 77.5455H75.8061L82.2152 95H79.9993L74.7834 80.3068H74.647L69.4311 95ZM70.2493 88.1818H79.1811V90.0568H70.2493V88.1818ZM81.6527 77.5455H84.0732L88.9141 85.6932H89.1186L93.9595 77.5455H96.38L90.0732 87.8068V95H87.9595V87.8068L81.6527 77.5455Z" fill="white"/>
</g>
<defs>
<clipPath id="clip0_0_1">
<rect width="100" height="100" fill="white"/>
</clipPath>
</defs>
</svg>
